<svg width="95" height="25" viewBox="0 0 95 25" fill="none" xmlns="http://www.w3.org/2000/svg">
<path d="M11.4473 19.623L9.85059 21.2344L0.00683594 13.0166L9.85059 4.79883L11.4473 6.4248L3.46387 12.9873L11.4473 19.623ZM21.4229 4.05176H17.0137V1.85449H28.4688V4.05176H24.0596V18.7734H28.4688V21H17.0137V18.7734H21.4229V4.05176ZM45.8711 7.71387C45.8711 8.49512 45.7246 9.27148 45.4316 10.043C45.1387 10.8047 44.6846 11.4883 44.0693 12.0938C43.4541 12.6992 42.668 13.1924 41.7109 13.5732C40.7539 13.9443 39.6113 14.1299 38.2832 14.1299H35.9102V21H33.3027V1.85449H38.6934C39.6406 1.85449 40.5488 1.96191 41.418 2.17676C42.2871 2.38184 43.0488 2.71875 43.7031 3.1875C44.3672 3.65625 44.8945 4.26172 45.2852 5.00391C45.6758 5.74609 45.8711 6.64941 45.8711 7.71387ZM43.1611 7.83105C43.1611 6.60059 42.7559 5.6582 41.9453 5.00391C41.1445 4.34961 40.0215 4.02246 38.5762 4.02246H35.9102V11.9033H38.3418C39.8848 11.9033 41.0713 11.5664 41.9014 10.8926C42.7412 10.2188 43.1611 9.19824 43.1611 7.83105ZM62.8193 21H59.5381L52.375 11.6104V21H49.7676V1.85449H52.375V10.7461L59.3916 1.85449H62.4824L54.9238 10.9512L62.8193 21ZM78.1416 0.301758L68.0928 24.1494H65.6611L75.71 0.301758H78.1416ZM83.5322 6.4248L85.1143 4.79883L94.958 13.0166L85.1143 21.2344L83.5322 19.623L91.5156 13.0459L83.5322 6.4248Z" fill="#1FB2A6"/>
</svg>
